<svg width="171" height="33" viewBox="0 0 171 33" fill="none" xmlns="http://www.w3.org/2000/svg">
<g filter="url(#filter0_d_2_12)">
<g filter="url(#filter1_d_2_12)">
<path fill-rule="evenodd" clip-rule="evenodd" d="M27.8333 15C27.8333 22.0877 22.0877 27.8333 15 27.8333C7.91234 27.8333 2.16666 22.0877 2.16666 15C2.16666 7.9123 7.91234 2.16666 15 2.16666C22.0877 2.16666 27.8333 7.9123 27.8333 15ZM30 15C30 23.2843 23.2843 30 15 30C6.71573 30 0 23.2843 0 15C0 6.71573 6.71573 0 15 0C23.2843 0 30 6.71573 30 15ZM23.2759 8.2759C23.2759 9.1329 22.5812 9.8276 21.7242 9.8276C20.8672 9.8276 20.1725 9.1329 20.1725 8.2759C20.1725 7.4189 20.8672 6.72418 21.7242 6.72418C22.5812 6.72418 23.2759 7.4189 23.2759 8.2759ZM10.4879 16.209C11.1556 18.7009 13.717 20.1797 16.2089 19.512C18.7008 18.8443 20.1796 16.2829 19.5119 13.791C18.8442 11.2991 16.2828 9.8203 13.7909 10.488C11.299 11.1557 9.82015 13.7171 10.4879 16.209ZM8.39503 16.7698C9.37244 20.4175 13.1219 22.5823 16.7696 21.6049C20.4174 20.6274 22.5821 16.878 21.6047 13.2302C20.6273 9.5825 16.8779 7.4177 13.2301 8.3952C9.58236 9.3726 7.41762 13.122 8.39503 16.7698Z" fill="url(#paint0_linear_2_12)"/>
</g>
<g filter="url(#filter2_d_2_12)">
<path d="M54.7282 11H52.0861C51.9299 10.2401 51.6564 9.57244 51.2658 8.99716C50.8823 8.42188 50.4135 7.93892 49.8596 7.5483C49.3127 7.15057 48.7054 6.85227 48.0378 6.65341C47.3702 6.45455 46.6742 6.35511 45.9498 6.35511C44.6287 6.35511 43.432 6.68892 42.3596 7.35653C41.2942 8.02415 40.4455 9.00781 39.8134 10.3075C39.1884 11.6072 38.8759 13.2017 38.8759 15.0909C38.8759 16.9801 39.1884 18.5746 39.8134 19.8743C40.4455 21.174 41.2942 22.1577 42.3596 22.8253C43.432 23.4929 44.6287 23.8267 45.9498 23.8267C46.6742 23.8267 47.3702 23.7273 48.0378 23.5284C48.7054 23.3295 49.3127 23.0348 49.8596 22.6442C50.4135 22.2464 50.8823 21.7599 51.2658 21.1847C51.6564 20.6023 51.9299 19.9347 52.0861 19.1818H54.7282C54.5293 20.2969 54.1671 21.2947 53.6415 22.1754C53.1159 23.0561 52.4625 23.8054 51.6813 24.4233C50.9 25.0341 50.0229 25.4993 49.0499 25.8189C48.084 26.1385 47.0506 26.2983 45.9498 26.2983C44.089 26.2983 42.4341 25.8438 40.9853 24.9347C39.5364 24.0256 38.3965 22.733 37.5655 21.0568C36.7346 19.3807 36.3191 17.392 36.3191 15.0909C36.3191 12.7898 36.7346 10.8011 37.5655 9.125C38.3965 7.44886 39.5364 6.15625 40.9853 5.24716C42.4341 4.33807 44.089 3.88352 45.9498 3.88352C47.0506 3.88352 48.084 4.04332 49.0499 4.36293C50.0229 4.68253 50.9 5.15128 51.6813 5.76918C52.4625 6.37997 53.1159 7.12571 53.6415 8.00639C54.1671 8.87997 54.5293 9.87784 54.7282 11ZM65.3043 26.3409C63.8271 26.3409 62.5309 25.9893 61.4158 25.2862C60.3079 24.5831 59.4414 23.5994 58.8164 22.3352C58.1985 21.071 57.8896 19.5937 57.8896 17.9034C57.8896 16.1989 58.1985 14.7109 58.8164 13.4396C59.4414 12.1683 60.3079 11.1811 61.4158 10.478C62.5309 9.77486 63.8271 9.4233 65.3043 9.4233C66.7816 9.4233 68.0742 9.77486 69.1822 10.478C70.2972 11.1811 71.1637 12.1683 71.7816 13.4396C72.4066 14.7109 72.7191 16.1989 72.7191 17.9034C72.7191 19.5937 72.4066 21.071 71.7816 22.3352C71.1637 23.5994 70.2972 24.5831 69.1822 25.2862C68.0742 25.9893 66.7816 26.3409 65.3043 26.3409ZM65.3043 24.0824C66.4265 24.0824 67.3498 23.7947 68.0742 23.2195C68.7987 22.6442 69.3349 21.8878 69.6829 20.9503C70.0309 20.0128 70.2049 18.9972 70.2049 17.9034C70.2049 16.8097 70.0309 15.7905 69.6829 14.8459C69.3349 13.9013 68.7987 13.1378 68.0742 12.5554C67.3498 11.973 66.4265 11.6818 65.3043 11.6818C64.1822 11.6818 63.2589 11.973 62.5344 12.5554C61.81 13.1378 61.2738 13.9013 60.9258 14.8459C60.5778 15.7905 60.4038 16.8097 60.4038 17.9034C60.4038 18.9972 60.5778 20.0128 60.9258 20.9503C61.2738 21.8878 61.81 22.6442 62.5344 23.2195C63.2589 23.7947 64.1822 24.0824 65.3043 24.0824ZM79.0712 16.1562V26H76.557V9.63636H78.986V12.1932H79.199C79.5826 11.3622 80.165 10.6946 80.9462 10.1903C81.7275 9.67898 82.736 9.4233 83.9718 9.4233C85.0797 9.4233 86.0492 9.65057 86.8801 10.1051C87.7111 10.5526 88.3574 11.2344 88.8191 12.1506C89.2807 13.0597 89.5115 14.2102 89.5115 15.6023V26H86.9973V15.7727C86.9973 14.4872 86.6635 13.4858 85.9959 12.7685C85.3283 12.044 84.4121 11.6818 83.2473 11.6818C82.4448 11.6818 81.7275 11.8558 81.0953 12.2038C80.4703 12.5518 79.9767 13.0597 79.6145 13.7273C79.2523 14.3949 79.0712 15.2045 79.0712 16.1562ZM96.62 16.1562V26H94.1058V9.63636H96.5348V12.1932H96.7479C97.1314 11.3622 97.7138 10.6946 98.495 10.1903C99.2763 9.67898 100.285 9.4233 101.521 9.4233C102.629 9.4233 103.598 9.65057 104.429 10.1051C105.26 10.5526 105.906 11.2344 106.368 12.1506C106.83 13.0597 107.06 14.2102 107.06 15.6023V26H104.546V15.7727C104.546 14.4872 104.212 13.4858 103.545 12.7685C102.877 12.044 101.961 11.6818 100.796 11.6818C99.9936 11.6818 99.2763 11.8558 98.6442 12.2038C98.0192 12.5518 97.5256 13.0597 97.1634 13.7273C96.8011 14.3949 96.62 15.2045 96.62 16.1562ZM118.515 26.3409C116.939 26.3409 115.579 25.9929 114.435 25.2969C113.299 24.5938 112.422 23.6136 111.804 22.3565C111.193 21.0923 110.888 19.6222 110.888 17.946C110.888 16.2699 111.193 14.7926 111.804 13.5142C112.422 12.2287 113.281 11.2273 114.382 10.5099C115.49 9.78551 116.782 9.4233 118.26 9.4233C119.112 9.4233 119.954 9.56534 120.785 9.84943C121.616 10.1335 122.372 10.5952 123.054 11.2344C123.736 11.8665 124.279 12.7045 124.684 13.7486C125.089 14.7926 125.291 16.0781 125.291 17.6051V18.6705H112.677V16.4972H122.734C122.734 15.5739 122.55 14.75 122.18 14.0256C121.818 13.3011 121.3 12.7294 120.625 12.3104C119.957 11.8913 119.169 11.6818 118.26 11.6818C117.258 11.6818 116.392 11.9304 115.66 12.4276C114.936 12.9176 114.378 13.5568 113.988 14.3452C113.597 15.1335 113.402 15.9787 113.402 16.8807V18.3295C113.402 19.5653 113.615 20.6129 114.041 21.4723C114.474 22.3246 115.074 22.9744 115.841 23.4219C116.608 23.8622 117.5 24.0824 118.515 24.0824C119.176 24.0824 119.773 23.9901 120.305 23.8054C120.845 23.6136 121.31 23.3295 121.701 22.9531C122.091 22.5696 122.393 22.0937 122.606 21.5256L125.035 22.2074C124.78 23.0312 124.35 23.7557 123.746 24.3807C123.143 24.9986 122.397 25.4815 121.509 25.8295C120.621 26.1705 119.623 26.3409 118.515 26.3409ZM135.763 26.3409C134.229 26.3409 132.908 25.9787 131.8 25.2543C130.692 24.5298 129.84 23.532 129.243 22.2607C128.647 20.9893 128.349 19.5369 128.349 17.9034C128.349 16.2415 128.654 14.7749 129.265 13.5036C129.883 12.2251 130.742 11.2273 131.843 10.5099C132.951 9.78551 134.243 9.4233 135.721 9.4233C136.871 9.4233 137.908 9.63636 138.831 10.0625C139.755 10.4886 140.511 11.0852 141.101 11.8523C141.69 12.6193 142.056 13.5142 142.198 14.5369H139.684C139.492 13.7912 139.066 13.1307 138.405 12.5554C137.752 11.973 136.871 11.6818 135.763 11.6818C134.783 11.6818 133.924 11.9375 133.185 12.4489C132.454 12.9531 131.882 13.6669 131.47 14.5902C131.065 15.5064 130.863 16.5824 130.863 17.8182C130.863 19.0824 131.062 20.1832 131.459 21.1207C131.864 22.0582 132.432 22.7862 133.164 23.3047C133.903 23.8232 134.769 24.0824 135.763 24.0824C136.417 24.0824 137.01 23.9688 137.542 23.7415C138.075 23.5142 138.526 23.1875 138.895 22.7614C139.265 22.3352 139.528 21.8239 139.684 21.2273H142.198C142.056 22.1932 141.704 23.0632 141.143 23.8374C140.589 24.6044 139.854 25.2152 138.938 25.6697C138.029 26.1172 136.971 26.3409 135.763 26.3409ZM152.99 9.63636V11.767H144.51V9.63636H152.99ZM146.981 5.71591H149.496V21.3125C149.496 22.0227 149.599 22.5554 149.805 22.9105C150.018 23.2585 150.287 23.4929 150.614 23.6136C150.948 23.7273 151.3 23.7841 151.669 23.7841C151.946 23.7841 152.173 23.7699 152.351 23.7415C152.528 23.706 152.67 23.6776 152.777 23.6562L153.288 25.9148C153.118 25.9787 152.88 26.0426 152.574 26.1065C152.269 26.1776 151.882 26.2131 151.413 26.2131C150.703 26.2131 150.007 26.0604 149.325 25.755C148.65 25.4496 148.089 24.9844 147.642 24.3594C147.202 23.7344 146.981 22.946 146.981 21.9943V5.71591Z" fill="white"/>
</g>
</g>
<defs>
<filter id="filter0_d_2_12" x="-4" y="0" width="161.288" height="38" filterUnits="userSpaceOnUse" color-interpolation-filters="sRGB">
<feFlood flood-opacity="0" result="BackgroundImageFix"/>
<feColorMatrix in="SourceAlpha" type="matrix" values="0 0 0 0 0 0 0 0 0 0 0 0 0 0 0 0 0 0 127 0" result="hardAlpha"/>
<feOffset dy="4"/>
<feGaussianBlur stdDeviation="2"/>
<feComposite in2="hardAlpha" operator="out"/>
<feColorMatrix type="matrix" values="0 0 0 0 0 0 0 0 0 0 0 0 0 0 0 0 0 0 0.25 0"/>
<feBlend mode="normal" in2="BackgroundImageFix" result="effect1_dropShadow_2_12"/>
<feBlend mode="normal" in="SourceGraphic" in2="effect1_dropShadow_2_12" result="shape"/>
</filter>
<filter id="filter1_d_2_12" x="-4" y="0" width="38" height="38" filterUnits="userSpaceOnUse" color-interpolation-filters="sRGB">
<feFlood flood-opacity="0" result="BackgroundImageFix"/>
<feColorMatrix in="SourceAlpha" type="matrix" values="0 0 0 0 0 0 0 0 0 0 0 0 0 0 0 0 0 0 127 0" result="hardAlpha"/>
<feOffset dy="4"/>
<feGaussianBlur stdDeviation="2"/>
<feComposite in2="hardAlpha" operator="out"/>
<feColorMatrix type="matrix" values="0 0 0 0 0 0 0 0 0 0 0 0 0 0 0 0 0 0 0.25 0"/>
<feBlend mode="normal" in2="BackgroundImageFix" result="effect1_dropShadow_2_12"/>
<feBlend mode="normal" in="SourceGraphic" in2="effect1_dropShadow_2_12" result="shape"/>
</filter>
<filter id="filter2_d_2_12" x="32.3191" y="3.88351" width="124.969" height="30.4574" filterUnits="userSpaceOnUse" color-interpolation-filters="sRGB">
<feFlood flood-opacity="0" result="BackgroundImageFix"/>
<feColorMatrix in="SourceAlpha" type="matrix" values="0 0 0 0 0 0 0 0 0 0 0 0 0 0 0 0 0 0 127 0" result="hardAlpha"/>
<feOffset dy="4"/>
<feGaussianBlur stdDeviation="2"/>
<feComposite in2="hardAlpha" operator="out"/>
<feColorMatrix type="matrix" values="0 0 0 0 0 0 0 0 0 0 0 0 0 0 0 0 0 0 0.25 0"/>
<feBlend mode="normal" in2="BackgroundImageFix" result="effect1_dropShadow_2_12"/>
<feBlend mode="normal" in="SourceGraphic" in2="effect1_dropShadow_2_12" result="shape"/>
</filter>
<linearGradient id="paint0_linear_2_12" x1="15" y1="0" x2="15" y2="30" gradientUnits="userSpaceOnUse">
<stop stop-color="#877EFF"/>
<stop offset="0.461458" stop-color="#685DFF"/>
<stop offset="1" stop-color="#3121FF"/>
</linearGradient>
</defs>
</svg>
